<svg width="187" height="187" viewBox="0 0 187 187" fill="none" xmlns="http://www.w3.org/2000/svg">
<path d="M10.7359 139.61C10.5017 139.399 10.3847 139.108 10.3847 138.74C10.3847 138.406 10.4989 138.152 10.7276 137.979C10.956 137.807 11.2767 137.72 11.6894 137.72H18.1791C18.6585 137.72 19.1268 137.617 19.5841 137.411C20.0412 137.204 20.4482 136.923 20.8052 136.566C21.1731 136.198 21.4575 135.766 21.6582 135.27C21.8589 134.774 21.9593 134.236 21.9593 133.656C21.9593 133.076 21.8506 132.546 21.6331 132.067C21.4157 131.587 21.1173 131.175 20.7383 130.829C20.3703 130.494 19.9522 130.238 19.4839 130.059C19.0156 129.881 18.5415 129.792 18.0621 129.792H15.2856C14.4493 129.792 13.6632 129.65 12.9272 129.365C12.1912 129.081 11.5444 128.682 10.9869 128.169C10.4183 127.657 9.97768 127.046 9.66557 126.338C9.35328 125.63 9.19727 124.863 9.19727 124.038C9.19727 123.213 9.35613 122.413 9.67394 121.638C9.99175 120.863 10.4292 120.202 10.9869 119.656C11.5557 119.109 12.208 118.68 12.9439 118.368C13.6799 118.056 14.4602 117.899 15.2856 117.899H21.4409C21.8532 117.899 22.1768 117.991 22.411 118.175C22.6451 118.359 22.7622 118.63 22.7622 118.987C22.7622 119.355 22.6451 119.639 22.411 119.84C22.1768 120.04 21.8533 120.141 21.4409 120.141H14.9177C14.4603 120.141 14.0228 120.233 13.6047 120.417C13.1865 120.601 12.8102 120.86 12.4756 121.195C12.1521 121.518 11.8958 121.92 11.7063 122.399C11.5165 122.878 11.4219 123.369 11.4219 123.871C11.4219 124.384 11.5139 124.866 11.6979 125.317C11.8819 125.769 12.1412 126.168 12.4756 126.513C12.8102 126.848 13.1865 127.11 13.6047 127.3C14.0228 127.489 14.4603 127.584 14.9177 127.584H17.9786C18.8149 127.595 19.612 127.749 20.3704 128.044C21.1286 128.339 21.7977 128.755 22.3777 129.29C22.9463 129.836 23.3922 130.475 23.7157 131.205C24.039 131.936 24.2007 132.713 24.2007 133.538C24.2007 134.397 24.0361 135.214 23.7073 135.989C23.3783 136.764 22.9238 137.447 22.3441 138.038C21.7641 138.629 21.0897 139.092 20.3202 139.426C19.5508 139.761 18.7422 139.928 17.8949 139.928H11.6894C11.2879 139.928 10.9701 139.822 10.7359 139.61Z" fill="#1D70BF"/>
<path d="M31.7861 139.535C30.788 139.128 29.9153 138.562 29.1684 137.837C28.41 137.101 27.8191 136.245 27.3954 135.27C26.9715 134.294 26.7598 133.249 26.7598 132.133V120.107C26.7598 119.795 26.8711 119.528 27.0943 119.304C27.3172 119.081 27.5794 118.97 27.8804 118.97C28.1925 118.97 28.463 119.078 28.6917 119.296C28.9201 119.513 29.0346 119.784 29.0346 120.107V123.937H36.4108C36.7229 123.937 36.9905 124.049 37.2137 124.272C37.4366 124.495 37.5482 124.763 37.5482 125.075C37.5482 125.376 37.4395 125.63 37.2221 125.836C37.0046 126.042 36.7342 126.145 36.4108 126.145H29.0346V132.15C29.0346 132.953 29.1852 133.706 29.4862 134.408C29.7873 135.111 30.211 135.724 30.7574 136.248C31.3036 136.772 31.9365 137.182 32.6558 137.477C33.375 137.773 34.1471 137.921 34.9724 137.921C35.7193 137.921 36.4108 137.807 37.0465 137.578C37.6821 137.349 38.2784 136.99 38.8361 136.499C38.9921 136.376 39.1315 136.284 39.2543 136.223C39.3768 136.162 39.5274 136.131 39.7059 136.131C39.9735 136.131 40.2048 136.234 40.4 136.44C40.5949 136.647 40.6927 136.895 40.6927 137.185C40.6927 137.352 40.6564 137.519 40.584 137.687C40.5113 137.854 40.4084 137.999 40.2745 138.121C39.572 138.791 38.7718 139.295 37.8743 139.635C36.9766 139.975 36.0094 140.145 34.9724 140.145C33.8461 140.145 32.7839 139.942 31.7861 139.535Z" fill="#1D70BF"/>
<path d="M46.6396 139.493C45.6415 139.069 44.7689 138.484 44.0219 137.737C43.2635 136.99 42.6726 136.117 42.2489 135.119C41.825 134.121 41.6133 133.07 41.6133 131.966C41.6133 130.862 41.8249 129.812 42.2489 128.813C42.6726 127.816 43.2635 126.938 44.0219 126.179C44.7689 125.432 45.6415 124.847 46.6396 124.423C47.6374 123.999 48.6886 123.787 49.7925 123.787C50.8852 123.787 51.9305 123.999 52.9286 124.423C53.9265 124.847 54.8046 125.432 55.563 126.179C56.31 126.926 56.8983 127.796 57.3277 128.788C57.7568 129.781 57.9771 130.823 57.9883 131.916C57.9883 132.217 57.888 132.471 57.6873 132.677C57.4866 132.884 57.2244 132.987 56.9011 132.987H44.0888C44.1779 133.678 44.387 134.328 44.716 134.935C45.0447 135.543 45.4657 136.076 45.9788 136.533C46.5029 136.99 47.0911 137.347 47.7435 137.603C48.3958 137.86 49.0787 137.988 49.7925 137.988C50.4615 137.988 51.0077 137.927 51.4317 137.804C51.8107 137.703 52.2568 137.509 52.7698 137.218C52.9927 137.085 53.2213 137.018 53.4555 137.018C53.7566 137.018 54.013 137.138 54.225 137.377C54.4367 137.617 54.5428 137.888 54.5428 138.189C54.5428 138.59 54.3643 138.891 54.0076 139.092C53.3607 139.46 52.7531 139.716 52.1844 139.861C51.4707 140.039 50.6733 140.129 49.7926 140.129C48.6885 140.129 47.6374 139.917 46.6396 139.493ZM55.7136 131.113C55.6242 130.377 55.4151 129.694 55.0864 129.064C54.7573 128.434 54.3254 127.885 53.7901 127.417C53.2548 126.948 52.647 126.583 51.9669 126.321C51.2866 126.059 50.5729 125.928 49.826 125.928C49.0675 125.928 48.3512 126.062 47.6766 126.329C47.0018 126.597 46.4025 126.971 45.8786 127.45C45.3656 127.918 44.9474 128.47 44.6242 129.106C44.3006 129.742 44.0998 130.411 44.022 131.113H55.7136Z" fill="#1D70BF"/>
<path d="M66.9365 139.644C66.7358 139.844 66.4736 139.945 66.1503 139.945H66.1335H66.1168C65.3361 139.945 64.6169 139.811 63.9591 139.543C63.301 139.276 62.7214 138.891 62.2195 138.389C61.7178 137.887 61.3331 137.288 61.0655 136.591C60.7979 135.894 60.6641 135.122 60.6641 134.275V119.137C60.6641 118.814 60.7671 118.544 60.9735 118.326C61.1797 118.109 61.439 118 61.7512 118C62.0633 118 62.3309 118.109 62.5541 118.326C62.777 118.544 62.8886 118.814 62.8886 119.137V134.241C62.8886 135.334 63.1672 136.187 63.725 136.8C64.2824 137.414 65.0573 137.731 66.0499 137.754H66.1335C66.4568 137.754 66.7216 137.86 66.928 138.071C67.1343 138.283 67.2375 138.546 67.2375 138.858C67.2376 139.181 67.1372 139.443 66.9365 139.644Z" fill="#1D70BF"/>
<path d="M75.8173 139.644C75.6165 139.844 75.3545 139.945 75.0311 139.945H75.0144H74.9977C74.2169 139.945 73.4977 139.811 72.84 139.543C72.1819 139.276 71.6023 138.891 71.1005 138.389C70.5987 137.887 70.214 137.288 69.9463 136.591C69.6787 135.894 69.5449 135.122 69.5449 134.275V119.137C69.5449 118.814 69.6479 118.544 69.8544 118.326C70.0606 118.109 70.3198 118 70.6321 118C70.9441 118 71.2118 118.109 71.435 118.326C71.6579 118.544 71.7696 118.814 71.7696 119.137V134.241C71.7696 135.334 72.048 136.187 72.6058 136.8C73.1633 137.414 73.9383 137.731 74.9308 137.754H75.0144C75.3377 137.754 75.6025 137.86 75.8089 138.071C76.0151 138.283 76.1183 138.546 76.1183 138.858C76.1183 139.181 76.018 139.443 75.8173 139.644Z" fill="#1D70BF"/>
<path d="M82.2399 139.501C81.2585 139.083 80.3943 138.495 79.6474 137.737C78.9002 136.99 78.3203 136.12 77.9079 135.127C77.4952 134.135 77.2891 133.087 77.2891 131.983C77.2891 130.868 77.4952 129.811 77.9079 128.813C78.3203 127.816 78.9003 126.937 79.6474 126.179C80.3944 125.421 81.2586 124.832 82.2399 124.414C83.2211 123.996 84.2639 123.787 85.3678 123.787C86.4827 123.787 87.531 123.996 88.5124 124.414C89.4935 124.832 90.3578 125.421 91.1049 126.179C91.8409 126.926 92.415 127.801 92.8278 128.805C93.2402 129.809 93.4466 130.868 93.4466 131.983V138.857C93.4466 139.181 93.335 139.454 93.112 139.677C92.8889 139.9 92.6158 140.011 92.2925 140.011C91.9689 140.011 91.7071 139.903 91.5063 139.685C91.3056 139.468 91.2052 139.192 91.2052 138.857L91.1885 137.653C90.43 138.445 89.5577 139.055 88.5709 139.485C87.584 139.914 86.5162 140.128 85.3678 140.128C84.2638 140.129 83.221 139.92 82.2399 139.501ZM87.6843 137.444C88.4035 137.138 89.0251 136.706 89.5492 136.148C90.0733 135.601 90.4801 134.969 90.7702 134.249C91.0601 133.53 91.2052 132.775 91.2052 131.983C91.2052 131.18 91.0601 130.414 90.7702 129.683C90.4801 128.953 90.0733 128.32 89.5492 127.785C89.014 127.239 88.3894 126.812 87.6759 126.505C86.9621 126.199 86.1928 126.045 85.3677 126.045C84.5536 126.045 83.7926 126.199 83.0845 126.505C82.3763 126.812 81.7547 127.239 81.2195 127.785C80.6843 128.331 80.2688 128.967 79.9735 129.692C79.6779 130.417 79.5302 131.18 79.5302 131.983C79.5302 132.775 79.6779 133.53 79.9735 134.249C80.2688 134.969 80.6843 135.602 81.2195 136.148C81.7548 136.706 82.3763 137.137 83.0845 137.444C83.7925 137.751 84.5536 137.904 85.3677 137.904C86.1928 137.904 86.9651 137.751 87.6843 137.444Z" fill="#1D70BF"/>
<path d="M96.8507 139.61C96.6221 139.398 96.5078 139.131 96.5078 138.807V132.318C96.5078 131.169 96.7278 130.076 97.1685 129.039C97.6088 128.002 98.2194 127.088 99 126.296C99.7916 125.504 100.7 124.888 101.726 124.448C102.752 124.007 103.834 123.787 104.971 123.787H105.105C105.462 123.787 105.743 123.89 105.95 124.097C106.156 124.303 106.259 124.573 106.259 124.908C106.259 125.231 106.15 125.496 105.933 125.702C105.716 125.909 105.44 126.012 105.105 126.012H104.971C104.146 126.012 103.354 126.173 102.596 126.497C101.838 126.82 101.169 127.272 100.589 127.852C100.009 128.432 99.5545 129.109 99.2256 129.884C98.8967 130.659 98.7322 131.47 98.7322 132.318V138.807C98.7322 139.131 98.629 139.398 98.4228 139.61C98.2164 139.822 97.9628 139.928 97.6617 139.928C97.3497 139.928 97.079 139.822 96.8507 139.61Z" fill="#1D70BF"/>
<path d="M111.452 139.728C110.822 139.46 110.262 139.081 109.771 138.59C109.28 138.1 108.901 137.537 108.634 136.901C108.366 136.265 108.232 135.591 108.232 134.877V124.858C108.232 124.535 108.341 124.267 108.559 124.055C108.776 123.843 109.041 123.737 109.353 123.737C109.654 123.737 109.913 123.843 110.131 124.055C110.348 124.267 110.463 124.535 110.474 124.858L110.507 134.86V134.961C110.496 134.983 110.49 135.017 110.49 135.061C110.557 135.82 110.881 136.472 111.461 137.018C111.739 137.275 112.054 137.475 112.406 137.62C112.757 137.765 113.127 137.838 113.518 137.838C113.93 137.838 114.321 137.754 114.689 137.587C115.057 137.42 115.386 137.191 115.676 136.901C115.954 136.611 116.169 136.277 116.32 135.897C116.47 135.518 116.545 135.122 116.545 134.71V124.875C116.545 124.552 116.651 124.281 116.863 124.064C117.075 123.846 117.337 123.737 117.649 123.737C117.95 123.737 118.212 123.846 118.435 124.064C118.658 124.281 118.77 124.552 118.77 124.875V134.794V134.877C118.759 134.9 118.753 134.933 118.753 134.977C118.775 135.368 118.87 135.733 119.037 136.073C119.205 136.413 119.422 136.717 119.69 136.985C119.968 137.252 120.284 137.459 120.635 137.603C120.986 137.749 121.357 137.821 121.747 137.821C122.148 137.821 122.539 137.743 122.918 137.587C123.297 137.431 123.626 137.213 123.905 136.934C124.183 136.656 124.404 136.335 124.565 135.973C124.727 135.61 124.813 135.234 124.825 134.844V124.858C124.825 124.535 124.933 124.267 125.151 124.055C125.368 123.843 125.633 123.737 125.945 123.737C126.246 123.737 126.508 123.843 126.731 124.055C126.954 124.267 127.066 124.535 127.066 124.858V134.91C127.066 135.624 126.926 136.296 126.648 136.926C126.369 137.556 125.979 138.111 125.477 138.59C124.986 139.07 124.415 139.446 123.763 139.719C123.11 139.992 122.433 140.129 121.73 140.129C120.894 140.129 120.119 139.951 119.405 139.594C118.692 139.237 118.095 138.741 117.616 138.105C117.114 138.752 116.503 139.251 115.784 139.602C115.065 139.953 114.293 140.129 113.468 140.129C112.754 140.129 112.082 139.995 111.452 139.728Z" fill="#61B6DB"/>
<path d="M133.24 139.501C132.259 139.083 131.394 138.495 130.647 137.737C129.9 136.99 129.32 136.12 128.908 135.127C128.495 134.135 128.289 133.087 128.289 131.983C128.289 130.868 128.495 129.811 128.908 128.813C129.32 127.816 129.9 126.937 130.647 126.179C131.394 125.421 132.259 124.832 133.24 124.414C134.221 123.996 135.264 123.787 136.368 123.787C137.483 123.787 138.531 123.996 139.512 124.414C140.493 124.832 141.358 125.421 142.105 126.179C142.841 126.926 143.415 127.801 143.828 128.805C144.24 129.809 144.447 130.868 144.447 131.983V138.857C144.447 139.181 144.335 139.454 144.112 139.677C143.889 139.9 143.616 140.011 143.293 140.011C142.969 140.011 142.707 139.903 142.506 139.685C142.306 139.468 142.205 139.192 142.205 138.857L142.189 137.653C141.43 138.445 140.558 139.055 139.571 139.485C138.584 139.914 137.516 140.128 136.368 140.128C135.264 140.129 134.221 139.92 133.24 139.501ZM138.684 137.444C139.404 137.138 140.025 136.706 140.549 136.148C141.073 135.601 141.48 134.969 141.77 134.249C142.06 133.53 142.205 132.775 142.205 131.983C142.205 131.18 142.06 130.414 141.77 129.683C141.48 128.953 141.073 128.32 140.549 127.785C140.014 127.239 139.389 126.812 138.676 126.505C137.962 126.199 137.193 126.045 136.368 126.045C135.554 126.045 134.793 126.199 134.085 126.505C133.376 126.812 132.755 127.239 132.22 127.785C131.684 128.331 131.269 128.967 130.973 129.692C130.678 130.417 130.53 131.18 130.53 131.983C130.53 132.775 130.678 133.53 130.973 134.249C131.269 134.969 131.684 135.602 132.22 136.148C132.755 136.706 133.376 137.137 134.085 137.444C134.792 137.751 135.554 137.904 136.368 137.904C137.193 137.904 137.965 137.751 138.684 137.444Z" fill="#61B6DB"/>
<path d="M147.248 139.61C147.053 139.399 146.955 139.125 146.955 138.791C146.955 138.467 147.053 138.205 147.248 138.005C147.443 137.804 147.691 137.703 147.992 137.703H155.067C155.379 137.703 155.692 137.645 156.004 137.528C156.316 137.411 156.589 137.241 156.824 137.018C157.37 136.505 157.643 135.892 157.643 135.178C157.643 134.464 157.381 133.884 156.857 133.438C156.623 133.238 156.347 133.084 156.029 132.978C155.711 132.873 155.385 132.814 155.051 132.803H151.756C151.131 132.803 150.543 132.68 149.991 132.435C149.439 132.19 148.957 131.855 148.544 131.431C148.131 131.007 147.814 130.52 147.591 129.968C147.368 129.416 147.256 128.833 147.256 128.22C147.256 127.618 147.373 127.049 147.607 126.514C147.842 125.978 148.165 125.504 148.578 125.092C148.99 124.679 149.47 124.359 150.016 124.13C150.562 123.902 151.142 123.787 151.756 123.787H157.861C158.184 123.787 158.452 123.885 158.664 124.08C158.875 124.275 158.981 124.54 158.981 124.874C158.981 125.22 158.875 125.499 158.664 125.711C158.452 125.923 158.184 126.028 157.861 126.028H151.739C151.125 126.028 150.59 126.257 150.133 126.714C149.932 126.926 149.774 127.169 149.656 127.442C149.539 127.715 149.481 127.997 149.481 128.286C149.481 128.587 149.539 128.878 149.656 129.156C149.773 129.435 149.938 129.675 150.15 129.875C150.351 130.087 150.59 130.255 150.869 130.377C151.148 130.5 151.438 130.561 151.739 130.561H155.235C155.881 130.561 156.489 130.681 157.058 130.921C157.627 131.161 158.123 131.498 158.546 131.933C158.97 132.368 159.296 132.869 159.525 133.438C159.753 134.007 159.868 134.603 159.868 135.228C159.868 135.852 159.753 136.449 159.525 137.018C159.296 137.586 158.976 138.088 158.563 138.523C158.139 138.969 157.646 139.315 157.083 139.56C156.52 139.805 155.915 139.928 155.268 139.928H147.992C147.691 139.928 147.443 139.822 147.248 139.61Z" fill="#61B6DB"/>
<path d="M175.857 139.635C175.646 139.429 175.54 139.164 175.54 138.841V131.632C175.54 130.862 175.42 130.135 175.18 129.449C174.94 128.763 174.603 128.164 174.168 127.651C173.711 127.138 173.167 126.736 172.537 126.446C171.907 126.157 171.219 126.012 170.472 126.012C169.713 126.012 168.986 126.151 168.289 126.43C167.592 126.709 166.976 127.104 166.441 127.617C165.905 128.13 165.484 128.73 165.178 129.415C164.871 130.101 164.718 130.823 164.718 131.581V138.807C164.718 139.119 164.609 139.384 164.392 139.602C164.174 139.819 163.909 139.928 163.597 139.928C163.285 139.928 163.02 139.819 162.803 139.602C162.585 139.384 162.477 139.119 162.477 138.807V119.07C162.477 118.747 162.588 118.474 162.811 118.25C163.034 118.028 163.296 117.916 163.597 117.916C163.92 117.916 164.188 118.028 164.4 118.25C164.612 118.474 164.718 118.747 164.718 119.07V126.931C165.409 125.973 166.24 125.214 167.21 124.657C168.236 124.088 169.323 123.804 170.472 123.804C171.52 123.804 172.493 124.002 173.39 124.397C174.288 124.793 175.066 125.354 175.724 126.078C176.37 126.792 176.872 127.628 177.229 128.587C177.586 129.546 177.764 130.561 177.764 131.632V138.841C177.764 139.164 177.658 139.429 177.447 139.635C177.235 139.842 176.967 139.945 176.644 139.945C176.331 139.945 176.069 139.842 175.857 139.635Z" fill="#61B6DB"/>
<path d="M94.2305 110.598C88.6904 110.598 83.1643 109.195 78.2064 106.523C72.9904 103.713 68.664 99.6347 65.6949 94.7299C62.0856 88.7677 60.5916 81.9047 61.2545 74.3316C61.8078 68.0115 63.9507 64.0259 72.8767 49.7234C79.6019 38.9474 83.1803 33.5473 85.6394 30.463C88.1822 27.2738 90.4701 25.2949 93.9932 25.2949C94.0107 25.2949 94.0278 25.2949 94.0453 25.295H94.0454C96.5391 25.3088 98.6433 26.3814 101.081 28.8813C103.645 31.5098 106.988 36.1925 111.303 43.1968C117.055 52.5347 120.729 58.6078 123.25 64.1971C126.168 70.6692 127.204 75.9694 126.607 81.3828C125.585 90.6497 121.475 96.8048 118.206 100.336C114.38 104.47 109.574 107.428 103.922 109.126C100.968 110.014 97.7583 110.534 94.8828 110.592C94.6657 110.596 94.4478 110.598 94.2305 110.598ZM93.9845 34.0454C93.5307 34.4406 92.5698 35.4561 90.7177 38.0499C88.4931 41.1656 85.3434 46.021 80.1859 54.2851C71.5647 68.0992 70.2106 70.8204 69.8376 75.0828C69.3376 80.7948 70.4236 85.9039 73.0655 90.268C77.4768 97.5552 85.9746 102.152 94.7113 101.977C97.1578 101.929 105.626 101.244 111.883 94.4839C114.271 91.9033 117.279 87.3719 118.043 80.4385C118.929 72.4039 114.368 64.6004 103.967 47.7155C100.869 42.686 98.2992 38.9134 96.3292 36.5025C95.1174 35.0196 94.3675 34.3414 93.9845 34.0454Z" fill="url(#paint0_linear_36_535)"/>
<path fill-rule="evenodd" clip-rule="evenodd" d="M80.2887 75.4193C79.6618 75.3755 78.7009 75.6495 78.4026 76.0849C77.1516 77.9122 80.3269 77.6546 81.2194 77.6957C80.6418 78.1861 78.4355 80.5008 78.304 81.0486C78.1536 81.6621 78.1562 86.5547 78.1426 87.6067C78.1206 89.1269 77.7675 92.7127 79.0951 93.2003C79.4756 93.3401 81.5998 93.3539 82.0597 93.2527C83.1547 93.0113 82.9193 92.0114 82.9685 90.8255C86.8199 90.5567 101.021 90.5567 104.857 90.8255C104.903 91.9294 104.684 92.9209 105.639 93.2224C106.102 93.3675 108.319 93.3511 108.73 93.2003C110.375 92.5977 109.521 86.6041 109.554 84.5605C109.614 80.9884 109.502 79.9804 106.605 77.6957C107.553 77.6518 110.399 77.9943 109.491 76.1973C109.217 75.6548 107.476 74.9755 106.833 75.7261C105.527 77.2491 105.669 75.6111 104.479 73.8962C103.096 71.124 102.749 71.1705 98.4044 71.217C96.9727 71.1514 95.426 71.0966 93.9972 71.0939C92.5136 71.0884 86.7925 71.2665 85.558 71.5542C84.3507 71.5788 82.7659 74.7016 82.2048 75.8083C81.3234 77.5396 81.4848 75.507 80.2887 75.4193ZM82.1966 77.3999C85.8509 77.4628 90.0062 76.9533 93.8275 76.9506C97.7858 76.9452 101.741 77.3697 105.628 77.3999L103.529 73.3291C103.143 72.6991 103.132 72.4553 102.302 72.3183C99.2446 71.8197 88.8455 71.8856 85.6812 72.2991C84.5234 72.4526 84.5315 72.9073 83.6254 74.5208C83.078 75.4932 82.5935 76.4 82.1966 77.3999ZM87.9395 85.67C87.9395 86.7438 88.8183 87.6202 89.8886 87.6202H97.9419C99.0122 87.6202 99.8907 86.7437 99.8907 85.67V84.3249C99.8907 83.2538 99.0122 82.3745 97.9419 82.3745H89.8886C88.8183 82.3745 87.9395 83.2538 87.9395 84.3249V85.67ZM85.4595 85.6755C85.9057 85.4644 86.3601 84.9496 86.5244 84.5222C85.3227 83.8126 80.8553 83.4977 79.4839 83.7689C78.8652 87.4041 84.2003 86.2753 85.4595 85.6755ZM101.306 84.5222C101.47 84.9496 101.925 85.4644 102.371 85.6755C103.63 86.2753 108.965 87.4042 108.347 83.7689C106.975 83.4976 102.508 83.8126 101.306 84.5222Z" fill="#1D70BF"/>
<defs>
<linearGradient id="paint0_linear_36_535" x1="93.9353" y1="25.2949" x2="93.9353" y2="110.598" gradientUnits="userSpaceOnUse">
<stop stop-color="#6AB7D4"/>
<stop offset="1" stop-color="#196CBC"/>
</linearGradient>
</defs>
</svg>
